<svg width="386" height="74" viewBox="0 0 386 74" fill="none" xmlns="http://www.w3.org/2000/svg">
<mask id="path-1-outside-1_182_26" maskUnits="userSpaceOnUse" x="0" y="0" width="386" height="74" fill="black">
<rect fill="white" width="386" height="74"/>
<path d="M20.6679 16.6729C19.1667 18.175 17.1306 19.0188 15.0075 19.0188C12.8845 19.0188 10.8484 18.175 9.34713 16.6729C7.84589 15.1709 7.00251 13.1337 7.00251 11.0094C7.00251 8.88519 7.84589 6.84796 9.34713 5.3459C10.8484 3.84385 12.8845 3 15.0075 3C17.1306 3 19.1667 3.84385 20.6679 5.3459C22.1692 6.84796 23.0126 8.88519 23.0126 11.0094C23.0126 13.1337 22.1692 15.1709 20.6679 16.6729Z"/>
<path d="M37.2641 17.2594C36.1382 18.386 34.6111 19.0188 33.0188 19.0188C31.4265 19.0188 29.8995 18.386 28.7735 17.2594C27.6476 16.1329 27.0151 14.605 27.0151 13.0118C27.0151 11.4186 27.6476 9.89068 28.7735 8.76414C29.8995 7.6376 31.4265 7.00471 33.0188 7.00471C34.6111 7.00471 36.1382 7.6376 37.2641 8.76414C38.3901 9.89068 39.0226 11.4186 39.0226 13.0118C39.0226 14.605 38.3901 16.1329 37.2641 17.2594Z"/>
<path d="M4.31885 24.3431C5.16329 23.4982 6.3086 23.0236 7.50283 23.0236H22.5122C23.7065 23.0236 24.8518 23.4982 25.6962 24.3431C26.5407 25.188 27.0151 26.334 27.0151 27.5289V28.0294C27.0151 28.0294 27.0151 37.04 15.0075 37.04C3 37.04 3 28.0294 3 28.0294V27.5289C3 26.334 3.4744 25.188 4.31885 24.3431Z"/>
<path d="M36.3569 22.6031L35.4043 25.0159C35.236 25.4429 35.1932 25.909 35.2807 26.3595C35.3683 26.8101 35.5827 27.2262 35.8986 27.5589L37.7338 29.4892C37.5737 32.1383 36.391 34.1927 34.1836 35.6544L31.5979 35.0277C30.6914 34.8074 29.7368 35.1338 29.1564 35.8687L27.5554 37.891C27.1609 38.3903 26.9708 39.0209 27.0235 39.6552C27.0763 40.2894 27.368 40.8799 27.8396 41.3071L28.514 41.9178C29.6487 42.947 31.2397 43.4256 32.5866 42.7007C38.064 39.7532 43.2192 30.7967 43.0191 24.5694C42.9711 23.0416 41.7663 21.9022 40.3174 21.4277L39.4549 21.1453C38.1981 20.7349 36.8412 21.3736 36.3569 22.6031Z"/>
<path d="M278.717 70.2792C294.927 72.305 283.723 61.0138 278.717 40.0636H295.047V35.6784H278.717V35.3781C278.717 33.5359 278.877 32.1143 279.197 31.1131C279.518 30.1119 280.048 29.381 280.788 28.9205C281.549 28.46 282.539 28.1896 283.76 28.1095C284.981 28.0294 286.502 27.9894 288.323 27.9894H295.047V23.1837H288.353C285.471 23.1837 283.04 23.384 281.058 23.7845C279.097 24.1649 277.516 24.8257 276.315 25.7668C275.115 26.7079 274.254 27.9594 273.734 29.5212C273.214 31.083 272.953 33.0353 272.953 35.3781V35.6784H267.19V40.0636H272.953V70.2792H278.717Z"/>
<path d="M24.8537 69.4982C26.6148 70.0188 28.9363 70.2792 31.8181 70.2792H45.2665C48.1483 70.2792 50.5698 70.0289 52.5311 69.5283C54.4923 69.0277 56.0733 68.2368 57.2741 67.1555C58.4748 66.0742 59.3353 64.6826 59.8557 62.9806C60.376 61.2786 60.6362 59.2261 60.6362 56.8233V24.1449H54.8725V56.8233C54.8725 58.3251 54.7325 59.6266 54.4523 60.7279C54.1721 61.8292 53.6718 62.7403 52.9513 63.4611C52.2309 64.182 51.2503 64.7226 50.0095 65.083C48.7687 65.4234 47.1877 65.5936 45.2665 65.5936H31.8181C30.3772 65.5936 29.1664 65.4935 28.1858 65.2933C27.2052 65.073 26.4147 64.5925 25.8143 63.8516C25.2139 63.1107 24.7837 62.0395 24.5235 60.6378C24.2633 59.2161 24.1333 57.3039 24.1333 54.9011V52.9788H18.3696V54.9011C18.3696 57.7845 18.5297 60.2073 18.8499 62.1696C19.1701 64.1319 19.8105 65.7138 20.7712 66.9152C21.7318 68.1166 23.0926 68.9776 24.8537 69.4982Z"/>
<path fill-rule="evenodd" clip-rule="evenodd" d="M81.498 70.159C84.1797 70.6796 87.4418 70.9399 91.2842 70.9399C94.8864 70.9399 97.9083 70.7497 100.35 70.3693C102.811 70.0088 104.793 69.4281 106.294 68.6272C107.795 67.8062 108.865 66.745 109.506 65.4435C110.166 64.1219 110.496 62.53 110.496 60.6678H104.733C104.733 61.8693 104.522 62.8504 104.102 63.6113C103.702 64.3522 102.992 64.9329 101.971 65.3534C100.95 65.7739 99.5694 66.0642 97.8283 66.2244C96.1072 66.3645 93.9258 66.4346 91.2842 66.4346C88.4024 66.4346 85.9809 66.3345 84.0196 66.1343C82.0584 65.914 80.4774 65.4134 79.2767 64.6325C78.0759 63.8516 77.2154 62.6201 76.695 60.9382C76.1747 59.2362 75.9145 57.0636 75.9145 54.4205H110.016L110.496 52.4982C110.496 50.7161 110.396 49.0241 110.196 47.4223C110.016 45.8204 109.666 44.4287 109.145 43.2473C108.645 42.0459 107.945 40.9046 107.044 39.8233C106.164 38.7421 105.003 37.821 103.562 37.0601C102.141 36.2992 100.42 35.7185 98.3987 35.318C96.3974 34.9175 94.0259 34.7173 91.2842 34.7173C87.4418 34.7173 84.1797 35.0077 81.498 35.5883C78.8164 36.169 76.635 37.1902 74.9539 38.6519C73.2729 40.1137 72.0521 42.086 71.2916 44.5689C70.5312 47.0318 70.1509 50.1555 70.1509 53.9399C70.1509 57.2438 70.5312 59.987 71.2916 62.1696C72.0521 64.3522 73.2729 66.0942 74.9539 67.3958C76.635 68.6973 78.8164 69.6184 81.498 70.159ZM86.1209 39.6431C87.6419 39.563 89.363 39.523 91.2842 39.523C93.6857 39.523 95.737 39.6832 97.438 40.0035C99.1391 40.3239 100.53 40.9146 101.611 41.7756C102.691 42.6366 103.482 43.7379 103.982 45.0795C104.482 46.4011 104.733 48.2332 104.733 50.576H75.9145C75.9145 48.8139 76.0246 47.3121 76.2448 46.0707C76.4849 44.8092 76.8451 43.838 77.3254 43.1572C77.8257 42.4564 78.4762 41.8557 79.2767 41.3551C80.0772 40.8345 81.0378 40.4441 82.1585 40.1837C83.2992 39.9034 84.62 39.7232 86.1209 39.6431Z"/>
<path d="M153.992 51.0565C153.992 48.914 153.832 47.1119 153.512 45.6502C153.192 44.1684 152.551 42.977 151.591 42.076C150.63 41.1749 149.269 40.5241 147.508 40.1237C145.747 39.7232 143.426 39.523 140.544 39.523C137.422 39.523 134.86 39.7532 132.859 40.2138C130.878 40.6743 129.317 41.3251 128.176 42.1661C127.035 43.0071 126.245 44.0183 125.805 45.1996C125.384 46.381 125.174 47.6926 125.174 49.1343V70.2792H119.411V35.6784H125.174V41.4452C125.595 40.4641 126.195 39.6231 126.975 38.9223C127.756 38.2014 128.636 37.5907 129.617 37.0901C130.598 36.5895 131.658 36.189 132.799 35.8887C133.94 35.5683 135.08 35.328 136.221 35.1678C137.362 34.9876 138.463 34.8675 139.523 34.8074C140.604 34.7474 141.585 34.7173 142.465 34.7173C145.027 34.7173 147.228 34.8775 149.069 35.1979C150.93 35.5183 152.501 35.9888 153.782 36.6095C155.083 37.2303 156.124 38.0012 156.904 38.9223C157.685 39.8433 158.285 40.9146 158.705 42.136C159.146 43.3375 159.436 44.689 159.576 46.1908C159.716 47.6726 159.786 49.2945 159.786 51.0565L159.756 70.2792H153.992V51.0565Z"/>
<path d="M202.832 45.6502C203.152 47.1119 203.312 48.914 203.312 51.0565V70.2792H209.076L209.106 51.0565C209.106 49.2945 209.036 47.6726 208.896 46.1908C208.756 44.689 208.465 43.3375 208.025 42.136C207.605 40.9146 207.004 39.8433 206.224 38.9223C205.443 38.0012 204.403 37.2303 203.102 36.6095C201.821 35.9888 200.25 35.5183 198.389 35.1979C196.548 34.8775 194.346 34.7173 191.785 34.7173C190.904 34.7173 189.924 34.7474 188.843 34.8074C187.782 34.8675 186.682 34.9876 185.541 35.1678C184.4 35.328 183.259 35.5683 182.119 35.8887C180.978 36.189 179.917 36.5895 178.937 37.0901C177.956 37.5907 177.076 38.2014 176.295 38.9223C175.515 39.6231 174.914 40.4641 174.494 41.4452V35.6784H168.73V70.2792H174.494V49.1343C174.494 47.6926 174.704 46.381 175.124 45.1996C175.565 44.0183 176.355 43.0071 177.496 42.1661C178.637 41.3251 180.198 40.6743 182.179 40.2138C184.18 39.7532 186.742 39.523 189.864 39.523C192.745 39.523 195.067 39.7232 196.828 40.1237C198.589 40.5241 199.95 41.1749 200.911 42.076C201.871 42.977 202.512 44.1684 202.832 45.6502Z"/>
<path fill-rule="evenodd" clip-rule="evenodd" d="M252.482 65.5336C252.422 65.7739 251.971 66.3746 251.131 67.3357C250.53 68.0565 249.73 68.6973 248.729 69.2579C247.729 69.7986 246.388 70.2191 244.707 70.5194C243.046 70.8398 240.854 71 238.133 71C234.51 71 231.419 70.8098 228.857 70.4293C226.295 70.0689 224.204 69.5082 222.583 68.7474C220.962 67.9664 219.771 66.9753 219.011 65.7738C218.27 64.5724 217.9 63.1408 217.9 61.4788C217.9 59.7367 218.1 58.265 218.5 57.0636C218.921 55.8422 219.521 54.821 220.302 54C221.102 53.179 222.063 52.5383 223.183 52.0777C224.304 51.6172 225.575 51.2668 226.996 51.0265C228.437 50.7862 230.008 50.636 231.709 50.576C233.41 50.5159 235.221 50.4859 237.142 50.4859C239.884 50.4859 242.175 50.606 244.016 50.8463C245.858 51.0666 247.359 51.3569 248.519 51.7173C249.7 52.0577 250.591 52.4281 251.191 52.8286C251.791 53.2291 252.222 53.5995 252.482 53.9399C252.482 51.6973 252.382 49.785 252.182 48.2032C252.001 46.6213 251.691 45.2998 251.251 44.2385C250.831 43.1773 250.28 42.3363 249.6 41.7155C248.919 41.0748 248.079 40.5942 247.078 40.2739C246.098 39.9535 244.947 39.7532 243.626 39.6731C242.305 39.573 240.794 39.523 239.093 39.523C236.452 39.523 234.26 39.5931 232.519 39.7332C230.778 39.8534 229.397 40.1037 228.377 40.4841C227.356 40.8645 226.636 41.3952 226.215 42.076C225.795 42.7367 225.585 43.6078 225.585 44.689H219.821C219.821 42.8669 220.141 41.3251 220.782 40.0636C221.442 38.8021 222.523 37.7809 224.024 37C225.545 36.1991 227.536 35.6184 229.998 35.2579C232.459 34.8975 235.491 34.7173 239.093 34.7173C242.616 34.7173 245.597 35.0077 248.039 35.5883C250.48 36.169 252.452 37.1902 253.953 38.6519C255.474 40.1137 256.564 42.086 257.225 44.5689C257.905 47.0318 258.245 50.1555 258.245 53.9399V70.2792H252.482V65.5336ZM239.093 66.4346C241.635 66.4346 243.756 66.3145 245.457 66.0742C247.178 65.8339 248.559 65.4735 249.6 64.9929C250.641 64.5124 251.381 63.9117 251.821 63.1908C252.262 62.47 252.482 61.629 252.482 60.6678C252.482 59.7067 252.222 58.8958 251.701 58.235C251.201 57.5542 250.35 57.0035 249.15 56.583C247.969 56.1625 246.398 55.8622 244.437 55.682C242.475 55.4817 240.054 55.3816 237.172 55.3816C234.29 55.3816 231.959 55.4317 230.178 55.5318C228.417 55.6319 227.056 55.8622 226.095 56.2226C225.135 56.583 224.484 57.1137 224.144 57.8145C223.824 58.5153 223.664 59.4664 223.664 60.6678C223.664 61.8693 223.834 62.8504 224.174 63.6113C224.534 64.3522 225.255 64.9329 226.335 65.3534C227.416 65.7739 228.967 66.0642 230.988 66.2244C233.03 66.3645 235.731 66.4346 239.093 66.4346Z"/>
<path fill-rule="evenodd" clip-rule="evenodd" d="M320.292 70.9399C316.449 70.9399 313.187 70.6796 310.506 70.159C307.824 69.6184 305.643 68.6973 303.962 67.3958C302.281 66.0942 301.06 64.3522 300.299 62.1696C299.539 59.987 299.159 57.2438 299.159 53.9399C299.159 50.1555 299.539 47.0318 300.299 44.5689C301.06 42.086 302.281 40.1137 303.962 38.6519C305.643 37.1902 307.824 36.169 310.506 35.5883C313.187 35.0077 316.449 34.7173 320.292 34.7173C323.034 34.7173 325.405 34.9175 327.406 35.318C329.428 35.7185 331.149 36.2992 332.57 37.0601C334.01 37.821 335.171 38.7421 336.052 39.8233C336.952 40.9046 337.653 42.0459 338.153 43.2473C338.673 44.4287 339.024 45.8204 339.204 47.4223C339.404 49.0241 339.504 50.7161 339.504 52.4982L339.024 54.4205H304.922C304.922 57.0636 305.182 59.2362 305.703 60.9382C306.223 62.6201 307.084 63.8516 308.284 64.6325C309.485 65.4134 311.066 65.914 313.027 66.1343C314.989 66.3345 317.41 66.4346 320.292 66.4346C322.934 66.4346 325.115 66.3645 326.836 66.2244C328.577 66.0642 329.958 65.7739 330.979 65.3534C331.999 64.9329 332.71 64.3522 333.11 63.6113C333.53 62.8504 333.74 61.8693 333.74 60.6678H339.504C339.504 62.53 339.174 64.1219 338.513 65.4435C337.873 66.745 336.802 67.8062 335.301 68.6272C333.8 69.4281 331.819 70.0088 329.358 70.3693C326.916 70.7497 323.894 70.9399 320.292 70.9399ZM320.292 39.523C318.371 39.523 316.65 39.563 315.129 39.6431C313.628 39.7232 312.307 39.9034 311.166 40.1837C310.045 40.4441 309.085 40.8345 308.284 41.3551C307.484 41.8557 306.833 42.4564 306.333 43.1572C305.853 43.838 305.493 44.8092 305.252 46.0707C305.032 47.3121 304.922 48.8139 304.922 50.576H333.74C333.74 48.2332 333.49 46.4011 332.99 45.0795C332.49 43.7379 331.699 42.6366 330.618 41.7756C329.538 40.9146 328.147 40.3239 326.446 40.0035C324.745 39.6832 322.693 39.523 320.292 39.523Z"/>
<path d="M377.867 43.3675C378.087 44.3086 378.197 45.5 378.197 46.9417H383C383 44.9594 382.81 43.2073 382.43 41.6855C382.069 40.1637 381.359 38.8922 380.298 37.871C379.258 36.8298 377.797 36.0489 375.916 35.5283C374.034 34.9876 371.593 34.7173 368.591 34.7173C365.969 34.7173 363.778 34.9376 362.017 35.3781C360.276 35.8186 358.855 36.3693 357.754 37.03C356.653 37.6708 355.833 38.3716 355.293 39.1325C354.752 39.8734 354.382 40.5542 354.182 41.1749V35.6784H348.418V70.2792H354.182V48.864C354.182 47.4623 354.342 46.1908 354.662 45.0495C355.002 43.9081 355.633 42.927 356.553 42.106C357.474 41.285 358.745 40.6543 360.366 40.2138C361.987 39.7532 364.088 39.523 366.67 39.523C369.311 39.523 371.393 39.6431 372.914 39.8834C374.455 40.1037 375.615 40.5041 376.396 41.0848C377.176 41.6455 377.667 42.4064 377.867 43.3675Z"/>
</mask>
<path d="M20.6679 16.6729C19.1667 18.175 17.1306 19.0188 15.0075 19.0188C12.8845 19.0188 10.8484 18.175 9.34713 16.6729C7.84589 15.1709 7.00251 13.1337 7.00251 11.0094C7.00251 8.88519 7.84589 6.84796 9.34713 5.3459C10.8484 3.84385 12.8845 3 15.0075 3C17.1306 3 19.1667 3.84385 20.6679 5.3459C22.1692 6.84796 23.0126 8.88519 23.0126 11.0094C23.0126 13.1337 22.1692 15.1709 20.6679 16.6729Z" fill="#202823"/>
<path d="M37.2641 17.2594C36.1382 18.386 34.6111 19.0188 33.0188 19.0188C31.4265 19.0188 29.8995 18.386 28.7735 17.2594C27.6476 16.1329 27.0151 14.605 27.0151 13.0118C27.0151 11.4186 27.6476 9.89068 28.7735 8.76414C29.8995 7.6376 31.4265 7.00471 33.0188 7.00471C34.6111 7.00471 36.1382 7.6376 37.2641 8.76414C38.3901 9.89068 39.0226 11.4186 39.0226 13.0118C39.0226 14.605 38.3901 16.1329 37.2641 17.2594Z" fill="#202823"/>
<path d="M4.31885 24.3431C5.16329 23.4982 6.3086 23.0236 7.50283 23.0236H22.5122C23.7065 23.0236 24.8518 23.4982 25.6962 24.3431C26.5407 25.188 27.0151 26.334 27.0151 27.5289V28.0294C27.0151 28.0294 27.0151 37.04 15.0075 37.04C3 37.04 3 28.0294 3 28.0294V27.5289C3 26.334 3.4744 25.188 4.31885 24.3431Z" fill="#202823"/>
<path d="M36.3569 22.6031L35.4043 25.0159C35.236 25.4429 35.1932 25.909 35.2807 26.3595C35.3683 26.8101 35.5827 27.2262 35.8986 27.5589L37.7338 29.4892C37.5737 32.1383 36.391 34.1927 34.1836 35.6544L31.5979 35.0277C30.6914 34.8074 29.7368 35.1338 29.1564 35.8687L27.5554 37.891C27.1609 38.3903 26.9708 39.0209 27.0235 39.6552C27.0763 40.2894 27.368 40.8799 27.8396 41.3071L28.514 41.9178C29.6487 42.947 31.2397 43.4256 32.5866 42.7007C38.064 39.7532 43.2192 30.7967 43.0191 24.5694C42.9711 23.0416 41.7663 21.9022 40.3174 21.4277L39.4549 21.1453C38.1981 20.7349 36.8412 21.3736 36.3569 22.6031Z" fill="#202823"/>
<path d="M278.717 70.2792C294.927 72.305 283.723 61.0138 278.717 40.0636H295.047V35.6784H278.717V35.3781C278.717 33.5359 278.877 32.1143 279.197 31.1131C279.518 30.1119 280.048 29.381 280.788 28.9205C281.549 28.46 282.539 28.1896 283.76 28.1095C284.981 28.0294 286.502 27.9894 288.323 27.9894H295.047V23.1837H288.353C285.471 23.1837 283.04 23.384 281.058 23.7845C279.097 24.1649 277.516 24.8257 276.315 25.7668C275.115 26.7079 274.254 27.9594 273.734 29.5212C273.214 31.083 272.953 33.0353 272.953 35.3781V35.6784H267.19V40.0636H272.953V70.2792H278.717Z" fill="#202823"/>
<path d="M24.8537 69.4982C26.6148 70.0188 28.9363 70.2792 31.8181 70.2792H45.2665C48.1483 70.2792 50.5698 70.0289 52.5311 69.5283C54.4923 69.0277 56.0733 68.2368 57.2741 67.1555C58.4748 66.0742 59.3353 64.6826 59.8557 62.9806C60.376 61.2786 60.6362 59.2261 60.6362 56.8233V24.1449H54.8725V56.8233C54.8725 58.3251 54.7325 59.6266 54.4523 60.7279C54.1721 61.8292 53.6718 62.7403 52.9513 63.4611C52.2309 64.182 51.2503 64.7226 50.0095 65.083C48.7687 65.4234 47.1877 65.5936 45.2665 65.5936H31.8181C30.3772 65.5936 29.1664 65.4935 28.1858 65.2933C27.2052 65.073 26.4147 64.5925 25.8143 63.8516C25.2139 63.1107 24.7837 62.0395 24.5235 60.6378C24.2633 59.2161 24.1333 57.3039 24.1333 54.9011V52.9788H18.3696V54.9011C18.3696 57.7845 18.5297 60.2073 18.8499 62.1696C19.1701 64.1319 19.8105 65.7138 20.7712 66.9152C21.7318 68.1166 23.0926 68.9776 24.8537 69.4982Z" fill="#202823"/>
<path fill-rule="evenodd" clip-rule="evenodd" d="M81.498 70.159C84.1797 70.6796 87.4418 70.9399 91.2842 70.9399C94.8864 70.9399 97.9083 70.7497 100.35 70.3693C102.811 70.0088 104.793 69.4281 106.294 68.6272C107.795 67.8062 108.865 66.745 109.506 65.4435C110.166 64.1219 110.496 62.53 110.496 60.6678H104.733C104.733 61.8693 104.522 62.8504 104.102 63.6113C103.702 64.3522 102.992 64.9329 101.971 65.3534C100.95 65.7739 99.5694 66.0642 97.8283 66.2244C96.1072 66.3645 93.9258 66.4346 91.2842 66.4346C88.4024 66.4346 85.9809 66.3345 84.0196 66.1343C82.0584 65.914 80.4774 65.4134 79.2767 64.6325C78.0759 63.8516 77.2154 62.6201 76.695 60.9382C76.1747 59.2362 75.9145 57.0636 75.9145 54.4205H110.016L110.496 52.4982C110.496 50.7161 110.396 49.0241 110.196 47.4223C110.016 45.8204 109.666 44.4287 109.145 43.2473C108.645 42.0459 107.945 40.9046 107.044 39.8233C106.164 38.7421 105.003 37.821 103.562 37.0601C102.141 36.2992 100.42 35.7185 98.3987 35.318C96.3974 34.9175 94.0259 34.7173 91.2842 34.7173C87.4418 34.7173 84.1797 35.0077 81.498 35.5883C78.8164 36.169 76.635 37.1902 74.9539 38.6519C73.2729 40.1137 72.0521 42.086 71.2916 44.5689C70.5312 47.0318 70.1509 50.1555 70.1509 53.9399C70.1509 57.2438 70.5312 59.987 71.2916 62.1696C72.0521 64.3522 73.2729 66.0942 74.9539 67.3958C76.635 68.6973 78.8164 69.6184 81.498 70.159ZM86.1209 39.6431C87.6419 39.563 89.363 39.523 91.2842 39.523C93.6857 39.523 95.737 39.6832 97.438 40.0035C99.1391 40.3239 100.53 40.9146 101.611 41.7756C102.691 42.6366 103.482 43.7379 103.982 45.0795C104.482 46.4011 104.733 48.2332 104.733 50.576H75.9145C75.9145 48.8139 76.0246 47.3121 76.2448 46.0707C76.4849 44.8092 76.8451 43.838 77.3254 43.1572C77.8257 42.4564 78.4762 41.8557 79.2767 41.3551C80.0772 40.8345 81.0378 40.4441 82.1585 40.1837C83.2992 39.9034 84.62 39.7232 86.1209 39.6431Z" fill="#202823"/>
<path d="M153.992 51.0565C153.992 48.914 153.832 47.1119 153.512 45.6502C153.192 44.1684 152.551 42.977 151.591 42.076C150.63 41.1749 149.269 40.5241 147.508 40.1237C145.747 39.7232 143.426 39.523 140.544 39.523C137.422 39.523 134.86 39.7532 132.859 40.2138C130.878 40.6743 129.317 41.3251 128.176 42.1661C127.035 43.0071 126.245 44.0183 125.805 45.1996C125.384 46.381 125.174 47.6926 125.174 49.1343V70.2792H119.411V35.6784H125.174V41.4452C125.595 40.4641 126.195 39.6231 126.975 38.9223C127.756 38.2014 128.636 37.5907 129.617 37.0901C130.598 36.5895 131.658 36.189 132.799 35.8887C133.94 35.5683 135.08 35.328 136.221 35.1678C137.362 34.9876 138.463 34.8675 139.523 34.8074C140.604 34.7474 141.585 34.7173 142.465 34.7173C145.027 34.7173 147.228 34.8775 149.069 35.1979C150.93 35.5183 152.501 35.9888 153.782 36.6095C155.083 37.2303 156.124 38.0012 156.904 38.9223C157.685 39.8433 158.285 40.9146 158.705 42.136C159.146 43.3375 159.436 44.689 159.576 46.1908C159.716 47.6726 159.786 49.2945 159.786 51.0565L159.756 70.2792H153.992V51.0565Z" fill="#202823"/>
<path d="M202.832 45.6502C203.152 47.1119 203.312 48.914 203.312 51.0565V70.2792H209.076L209.106 51.0565C209.106 49.2945 209.036 47.6726 208.896 46.1908C208.756 44.689 208.465 43.3375 208.025 42.136C207.605 40.9146 207.004 39.8433 206.224 38.9223C205.443 38.0012 204.403 37.2303 203.102 36.6095C201.821 35.9888 200.25 35.5183 198.389 35.1979C196.548 34.8775 194.346 34.7173 191.785 34.7173C190.904 34.7173 189.924 34.7474 188.843 34.8074C187.782 34.8675 186.682 34.9876 185.541 35.1678C184.4 35.328 183.259 35.5683 182.119 35.8887C180.978 36.189 179.917 36.5895 178.937 37.0901C177.956 37.5907 177.076 38.2014 176.295 38.9223C175.515 39.6231 174.914 40.4641 174.494 41.4452V35.6784H168.73V70.2792H174.494V49.1343C174.494 47.6926 174.704 46.381 175.124 45.1996C175.565 44.0183 176.355 43.0071 177.496 42.1661C178.637 41.3251 180.198 40.6743 182.179 40.2138C184.18 39.7532 186.742 39.523 189.864 39.523C192.745 39.523 195.067 39.7232 196.828 40.1237C198.589 40.5241 199.95 41.1749 200.911 42.076C201.871 42.977 202.512 44.1684 202.832 45.6502Z" fill="#202823"/>
<path fill-rule="evenodd" clip-rule="evenodd" d="M252.482 65.5336C252.422 65.7739 251.971 66.3746 251.131 67.3357C250.53 68.0565 249.73 68.6973 248.729 69.2579C247.729 69.7986 246.388 70.2191 244.707 70.5194C243.046 70.8398 240.854 71 238.133 71C234.51 71 231.419 70.8098 228.857 70.4293C226.295 70.0689 224.204 69.5082 222.583 68.7474C220.962 67.9664 219.771 66.9753 219.011 65.7738C218.27 64.5724 217.9 63.1408 217.9 61.4788C217.9 59.7367 218.1 58.265 218.5 57.0636C218.921 55.8422 219.521 54.821 220.302 54C221.102 53.179 222.063 52.5383 223.183 52.0777C224.304 51.6172 225.575 51.2668 226.996 51.0265C228.437 50.7862 230.008 50.636 231.709 50.576C233.41 50.5159 235.221 50.4859 237.142 50.4859C239.884 50.4859 242.175 50.606 244.016 50.8463C245.858 51.0666 247.359 51.3569 248.519 51.7173C249.7 52.0577 250.591 52.4281 251.191 52.8286C251.791 53.2291 252.222 53.5995 252.482 53.9399C252.482 51.6973 252.382 49.785 252.182 48.2032C252.001 46.6213 251.691 45.2998 251.251 44.2385C250.831 43.1773 250.28 42.3363 249.6 41.7155C248.919 41.0748 248.079 40.5942 247.078 40.2739C246.098 39.9535 244.947 39.7532 243.626 39.6731C242.305 39.573 240.794 39.523 239.093 39.523C236.452 39.523 234.26 39.5931 232.519 39.7332C230.778 39.8534 229.397 40.1037 228.377 40.4841C227.356 40.8645 226.636 41.3952 226.215 42.076C225.795 42.7367 225.585 43.6078 225.585 44.689H219.821C219.821 42.8669 220.141 41.3251 220.782 40.0636C221.442 38.8021 222.523 37.7809 224.024 37C225.545 36.1991 227.536 35.6184 229.998 35.2579C232.459 34.8975 235.491 34.7173 239.093 34.7173C242.616 34.7173 245.597 35.0077 248.039 35.5883C250.48 36.169 252.452 37.1902 253.953 38.6519C255.474 40.1137 256.564 42.086 257.225 44.5689C257.905 47.0318 258.245 50.1555 258.245 53.9399V70.2792H252.482V65.5336ZM239.093 66.4346C241.635 66.4346 243.756 66.3145 245.457 66.0742C247.178 65.8339 248.559 65.4735 249.6 64.9929C250.641 64.5124 251.381 63.9117 251.821 63.1908C252.262 62.47 252.482 61.629 252.482 60.6678C252.482 59.7067 252.222 58.8958 251.701 58.235C251.201 57.5542 250.35 57.0035 249.15 56.583C247.969 56.1625 246.398 55.8622 244.437 55.682C242.475 55.4817 240.054 55.3816 237.172 55.3816C234.29 55.3816 231.959 55.4317 230.178 55.5318C228.417 55.6319 227.056 55.8622 226.095 56.2226C225.135 56.583 224.484 57.1137 224.144 57.8145C223.824 58.5153 223.664 59.4664 223.664 60.6678C223.664 61.8693 223.834 62.8504 224.174 63.6113C224.534 64.3522 225.255 64.9329 226.335 65.3534C227.416 65.7739 228.967 66.0642 230.988 66.2244C233.03 66.3645 235.731 66.4346 239.093 66.4346Z" fill="#202823"/>
<path fill-rule="evenodd" clip-rule="evenodd" d="M320.292 70.9399C316.449 70.9399 313.187 70.6796 310.506 70.159C307.824 69.6184 305.643 68.6973 303.962 67.3958C302.281 66.0942 301.06 64.3522 300.299 62.1696C299.539 59.987 299.159 57.2438 299.159 53.9399C299.159 50.1555 299.539 47.0318 300.299 44.5689C301.06 42.086 302.281 40.1137 303.962 38.6519C305.643 37.1902 307.824 36.169 310.506 35.5883C313.187 35.0077 316.449 34.7173 320.292 34.7173C323.034 34.7173 325.405 34.9175 327.406 35.318C329.428 35.7185 331.149 36.2992 332.57 37.0601C334.01 37.821 335.171 38.7421 336.052 39.8233C336.952 40.9046 337.653 42.0459 338.153 43.2473C338.673 44.4287 339.024 45.8204 339.204 47.4223C339.404 49.0241 339.504 50.7161 339.504 52.4982L339.024 54.4205H304.922C304.922 57.0636 305.182 59.2362 305.703 60.9382C306.223 62.6201 307.084 63.8516 308.284 64.6325C309.485 65.4134 311.066 65.914 313.027 66.1343C314.989 66.3345 317.41 66.4346 320.292 66.4346C322.934 66.4346 325.115 66.3645 326.836 66.2244C328.577 66.0642 329.958 65.7739 330.979 65.3534C331.999 64.9329 332.71 64.3522 333.11 63.6113C333.53 62.8504 333.74 61.8693 333.74 60.6678H339.504C339.504 62.53 339.174 64.1219 338.513 65.4435C337.873 66.745 336.802 67.8062 335.301 68.6272C333.8 69.4281 331.819 70.0088 329.358 70.3693C326.916 70.7497 323.894 70.9399 320.292 70.9399ZM320.292 39.523C318.371 39.523 316.65 39.563 315.129 39.6431C313.628 39.7232 312.307 39.9034 311.166 40.1837C310.045 40.4441 309.085 40.8345 308.284 41.3551C307.484 41.8557 306.833 42.4564 306.333 43.1572C305.853 43.838 305.493 44.8092 305.252 46.0707C305.032 47.3121 304.922 48.8139 304.922 50.576H333.74C333.74 48.2332 333.49 46.4011 332.99 45.0795C332.49 43.7379 331.699 42.6366 330.618 41.7756C329.538 40.9146 328.147 40.3239 326.446 40.0035C324.745 39.6832 322.693 39.523 320.292 39.523Z" fill="#202823"/>
<path d="M377.867 43.3675C378.087 44.3086 378.197 45.5 378.197 46.9417H383C383 44.9594 382.81 43.2073 382.43 41.6855C382.069 40.1637 381.359 38.8922 380.298 37.871C379.258 36.8298 377.797 36.0489 375.916 35.5283C374.034 34.9876 371.593 34.7173 368.591 34.7173C365.969 34.7173 363.778 34.9376 362.017 35.3781C360.276 35.8186 358.855 36.3693 357.754 37.03C356.653 37.6708 355.833 38.3716 355.293 39.1325C354.752 39.8734 354.382 40.5542 354.182 41.1749V35.6784H348.418V70.2792H354.182V48.864C354.182 47.4623 354.342 46.1908 354.662 45.0495C355.002 43.9081 355.633 42.927 356.553 42.106C357.474 41.285 358.745 40.6543 360.366 40.2138C361.987 39.7532 364.088 39.523 366.67 39.523C369.311 39.523 371.393 39.6431 372.914 39.8834C374.455 40.1037 375.615 40.5041 376.396 41.0848C377.176 41.6455 377.667 42.4064 377.867 43.3675Z" fill="#202823"/>
<path d="M20.6679 16.6729C19.1667 18.175 17.1306 19.0188 15.0075 19.0188C12.8845 19.0188 10.8484 18.175 9.34713 16.6729C7.84589 15.1709 7.00251 13.1337 7.00251 11.0094C7.00251 8.88519 7.84589 6.84796 9.34713 5.3459C10.8484 3.84385 12.8845 3 15.0075 3C17.1306 3 19.1667 3.84385 20.6679 5.3459C22.1692 6.84796 23.0126 8.88519 23.0126 11.0094C23.0126 13.1337 22.1692 15.1709 20.6679 16.6729Z" stroke="#202823" stroke-width="5" mask="url(#path-1-outside-1_182_26)"/>
<path d="M37.2641 17.2594C36.1382 18.386 34.6111 19.0188 33.0188 19.0188C31.4265 19.0188 29.8995 18.386 28.7735 17.2594C27.6476 16.1329 27.0151 14.605 27.0151 13.0118C27.0151 11.4186 27.6476 9.89068 28.7735 8.76414C29.8995 7.6376 31.4265 7.00471 33.0188 7.00471C34.6111 7.00471 36.1382 7.6376 37.2641 8.76414C38.3901 9.89068 39.0226 11.4186 39.0226 13.0118C39.0226 14.605 38.3901 16.1329 37.2641 17.2594Z" stroke="#202823" stroke-width="5" mask="url(#path-1-outside-1_182_26)"/>
<path d="M4.31885 24.3431C5.16329 23.4982 6.3086 23.0236 7.50283 23.0236H22.5122C23.7065 23.0236 24.8518 23.4982 25.6962 24.3431C26.5407 25.188 27.0151 26.334 27.0151 27.5289V28.0294C27.0151 28.0294 27.0151 37.04 15.0075 37.04C3 37.04 3 28.0294 3 28.0294V27.5289C3 26.334 3.4744 25.188 4.31885 24.3431Z" stroke="#202823" stroke-width="5" mask="url(#path-1-outside-1_182_26)"/>
<path d="M36.3569 22.6031L35.4043 25.0159C35.236 25.4429 35.1932 25.909 35.2807 26.3595C35.3683 26.8101 35.5827 27.2262 35.8986 27.5589L37.7338 29.4892C37.5737 32.1383 36.391 34.1927 34.1836 35.6544L31.5979 35.0277C30.6914 34.8074 29.7368 35.1338 29.1564 35.8687L27.5554 37.891C27.1609 38.3903 26.9708 39.0209 27.0235 39.6552C27.0763 40.2894 27.368 40.8799 27.8396 41.3071L28.514 41.9178C29.6487 42.947 31.2397 43.4256 32.5866 42.7007C38.064 39.7532 43.2192 30.7967 43.0191 24.5694C42.9711 23.0416 41.7663 21.9022 40.3174 21.4277L39.4549 21.1453C38.1981 20.7349 36.8412 21.3736 36.3569 22.6031Z" stroke="#202823" stroke-width="5" mask="url(#path-1-outside-1_182_26)"/>
<path d="M278.717 70.2792C294.927 72.305 283.723 61.0138 278.717 40.0636H295.047V35.6784H278.717V35.3781C278.717 33.5359 278.877 32.1143 279.197 31.1131C279.518 30.1119 280.048 29.381 280.788 28.9205C281.549 28.46 282.539 28.1896 283.76 28.1095C284.981 28.0294 286.502 27.9894 288.323 27.9894H295.047V23.1837H288.353C285.471 23.1837 283.04 23.384 281.058 23.7845C279.097 24.1649 277.516 24.8257 276.315 25.7668C275.115 26.7079 274.254 27.9594 273.734 29.5212C273.214 31.083 272.953 33.0353 272.953 35.3781V35.6784H267.19V40.0636H272.953V70.2792H278.717Z" stroke="#202823" stroke-width="5" mask="url(#path-1-outside-1_182_26)"/>
<path d="M24.8537 69.4982C26.6148 70.0188 28.9363 70.2792 31.8181 70.2792H45.2665C48.1483 70.2792 50.5698 70.0289 52.5311 69.5283C54.4923 69.0277 56.0733 68.2368 57.2741 67.1555C58.4748 66.0742 59.3353 64.6826 59.8557 62.9806C60.376 61.2786 60.6362 59.2261 60.6362 56.8233V24.1449H54.8725V56.8233C54.8725 58.3251 54.7325 59.6266 54.4523 60.7279C54.1721 61.8292 53.6718 62.7403 52.9513 63.4611C52.2309 64.182 51.2503 64.7226 50.0095 65.083C48.7687 65.4234 47.1877 65.5936 45.2665 65.5936H31.8181C30.3772 65.5936 29.1664 65.4935 28.1858 65.2933C27.2052 65.073 26.4147 64.5925 25.8143 63.8516C25.2139 63.1107 24.7837 62.0395 24.5235 60.6378C24.2633 59.2161 24.1333 57.3039 24.1333 54.9011V52.9788H18.3696V54.9011C18.3696 57.7845 18.5297 60.2073 18.8499 62.1696C19.1701 64.1319 19.8105 65.7138 20.7712 66.9152C21.7318 68.1166 23.0926 68.9776 24.8537 69.4982Z" stroke="#202823" stroke-width="5" mask="url(#path-1-outside-1_182_26)"/>
<path fill-rule="evenodd" clip-rule="evenodd" d="M81.498 70.159C84.1797 70.6796 87.4418 70.9399 91.2842 70.9399C94.8864 70.9399 97.9083 70.7497 100.35 70.3693C102.811 70.0088 104.793 69.4281 106.294 68.6272C107.795 67.8062 108.865 66.745 109.506 65.4435C110.166 64.1219 110.496 62.53 110.496 60.6678H104.733C104.733 61.8693 104.522 62.8504 104.102 63.6113C103.702 64.3522 102.992 64.9329 101.971 65.3534C100.95 65.7739 99.5694 66.0642 97.8283 66.2244C96.1072 66.3645 93.9258 66.4346 91.2842 66.4346C88.4024 66.4346 85.9809 66.3345 84.0196 66.1343C82.0584 65.914 80.4774 65.4134 79.2767 64.6325C78.0759 63.8516 77.2154 62.6201 76.695 60.9382C76.1747 59.2362 75.9145 57.0636 75.9145 54.4205H110.016L110.496 52.4982C110.496 50.7161 110.396 49.0241 110.196 47.4223C110.016 45.8204 109.666 44.4287 109.145 43.2473C108.645 42.0459 107.945 40.9046 107.044 39.8233C106.164 38.7421 105.003 37.821 103.562 37.0601C102.141 36.2992 100.42 35.7185 98.3987 35.318C96.3974 34.9175 94.0259 34.7173 91.2842 34.7173C87.4418 34.7173 84.1797 35.0077 81.498 35.5883C78.8164 36.169 76.635 37.1902 74.9539 38.6519C73.2729 40.1137 72.0521 42.086 71.2916 44.5689C70.5312 47.0318 70.1509 50.1555 70.1509 53.9399C70.1509 57.2438 70.5312 59.987 71.2916 62.1696C72.0521 64.3522 73.2729 66.0942 74.9539 67.3958C76.635 68.6973 78.8164 69.6184 81.498 70.159ZM86.1209 39.6431C87.6419 39.563 89.363 39.523 91.2842 39.523C93.6857 39.523 95.737 39.6832 97.438 40.0035C99.1391 40.3239 100.53 40.9146 101.611 41.7756C102.691 42.6366 103.482 43.7379 103.982 45.0795C104.482 46.4011 104.733 48.2332 104.733 50.576H75.9145C75.9145 48.8139 76.0246 47.3121 76.2448 46.0707C76.4849 44.8092 76.8451 43.838 77.3254 43.1572C77.8257 42.4564 78.4762 41.8557 79.2767 41.3551C80.0772 40.8345 81.0378 40.4441 82.1585 40.1837C83.2992 39.9034 84.62 39.7232 86.1209 39.6431Z" stroke="#202823" stroke-width="5" mask="url(#path-1-outside-1_182_26)"/>
<path d="M153.992 51.0565C153.992 48.914 153.832 47.1119 153.512 45.6502C153.192 44.1684 152.551 42.977 151.591 42.076C150.63 41.1749 149.269 40.5241 147.508 40.1237C145.747 39.7232 143.426 39.523 140.544 39.523C137.422 39.523 134.86 39.7532 132.859 40.2138C130.878 40.6743 129.317 41.3251 128.176 42.1661C127.035 43.0071 126.245 44.0183 125.805 45.1996C125.384 46.381 125.174 47.6926 125.174 49.1343V70.2792H119.411V35.6784H125.174V41.4452C125.595 40.4641 126.195 39.6231 126.975 38.9223C127.756 38.2014 128.636 37.5907 129.617 37.0901C130.598 36.5895 131.658 36.189 132.799 35.8887C133.94 35.5683 135.08 35.328 136.221 35.1678C137.362 34.9876 138.463 34.8675 139.523 34.8074C140.604 34.7474 141.585 34.7173 142.465 34.7173C145.027 34.7173 147.228 34.8775 149.069 35.1979C150.93 35.5183 152.501 35.9888 153.782 36.6095C155.083 37.2303 156.124 38.0012 156.904 38.9223C157.685 39.8433 158.285 40.9146 158.705 42.136C159.146 43.3375 159.436 44.689 159.576 46.1908C159.716 47.6726 159.786 49.2945 159.786 51.0565L159.756 70.2792H153.992V51.0565Z" stroke="#202823" stroke-width="5" mask="url(#path-1-outside-1_182_26)"/>
<path d="M202.832 45.6502C203.152 47.1119 203.312 48.914 203.312 51.0565V70.2792H209.076L209.106 51.0565C209.106 49.2945 209.036 47.6726 208.896 46.1908C208.756 44.689 208.465 43.3375 208.025 42.136C207.605 40.9146 207.004 39.8433 206.224 38.9223C205.443 38.0012 204.403 37.2303 203.102 36.6095C201.821 35.9888 200.25 35.5183 198.389 35.1979C196.548 34.8775 194.346 34.7173 191.785 34.7173C190.904 34.7173 189.924 34.7474 188.843 34.8074C187.782 34.8675 186.682 34.9876 185.541 35.1678C184.4 35.328 183.259 35.5683 182.119 35.8887C180.978 36.189 179.917 36.5895 178.937 37.0901C177.956 37.5907 177.076 38.2014 176.295 38.9223C175.515 39.6231 174.914 40.4641 174.494 41.4452V35.6784H168.73V70.2792H174.494V49.1343C174.494 47.6926 174.704 46.381 175.124 45.1996C175.565 44.0183 176.355 43.0071 177.496 42.1661C178.637 41.3251 180.198 40.6743 182.179 40.2138C184.18 39.7532 186.742 39.523 189.864 39.523C192.745 39.523 195.067 39.7232 196.828 40.1237C198.589 40.5241 199.95 41.1749 200.911 42.076C201.871 42.977 202.512 44.1684 202.832 45.6502Z" stroke="#202823" stroke-width="5" mask="url(#path-1-outside-1_182_26)"/>
<path fill-rule="evenodd" clip-rule="evenodd" d="M252.482 65.5336C252.422 65.7739 251.971 66.3746 251.131 67.3357C250.53 68.0565 249.73 68.6973 248.729 69.2579C247.729 69.7986 246.388 70.2191 244.707 70.5194C243.046 70.8398 240.854 71 238.133 71C234.51 71 231.419 70.8098 228.857 70.4293C226.295 70.0689 224.204 69.5082 222.583 68.7474C220.962 67.9664 219.771 66.9753 219.011 65.7738C218.27 64.5724 217.9 63.1408 217.9 61.4788C217.9 59.7367 218.1 58.265 218.5 57.0636C218.921 55.8422 219.521 54.821 220.302 54C221.102 53.179 222.063 52.5383 223.183 52.0777C224.304 51.6172 225.575 51.2668 226.996 51.0265C228.437 50.7862 230.008 50.636 231.709 50.576C233.41 50.5159 235.221 50.4859 237.142 50.4859C239.884 50.4859 242.175 50.606 244.016 50.8463C245.858 51.0666 247.359 51.3569 248.519 51.7173C249.7 52.0577 250.591 52.4281 251.191 52.8286C251.791 53.2291 252.222 53.5995 252.482 53.9399C252.482 51.6973 252.382 49.785 252.182 48.2032C252.001 46.6213 251.691 45.2998 251.251 44.2385C250.831 43.1773 250.28 42.3363 249.6 41.7155C248.919 41.0748 248.079 40.5942 247.078 40.2739C246.098 39.9535 244.947 39.7532 243.626 39.6731C242.305 39.573 240.794 39.523 239.093 39.523C236.452 39.523 234.26 39.5931 232.519 39.7332C230.778 39.8534 229.397 40.1037 228.377 40.4841C227.356 40.8645 226.636 41.3952 226.215 42.076C225.795 42.7367 225.585 43.6078 225.585 44.689H219.821C219.821 42.8669 220.141 41.3251 220.782 40.0636C221.442 38.8021 222.523 37.7809 224.024 37C225.545 36.1991 227.536 35.6184 229.998 35.2579C232.459 34.8975 235.491 34.7173 239.093 34.7173C242.616 34.7173 245.597 35.0077 248.039 35.5883C250.48 36.169 252.452 37.1902 253.953 38.6519C255.474 40.1137 256.564 42.086 257.225 44.5689C257.905 47.0318 258.245 50.1555 258.245 53.9399V70.2792H252.482V65.5336ZM239.093 66.4346C241.635 66.4346 243.756 66.3145 245.457 66.0742C247.178 65.8339 248.559 65.4735 249.6 64.9929C250.641 64.5124 251.381 63.9117 251.821 63.1908C252.262 62.47 252.482 61.629 252.482 60.6678C252.482 59.7067 252.222 58.8958 251.701 58.235C251.201 57.5542 250.35 57.0035 249.15 56.583C247.969 56.1625 246.398 55.8622 244.437 55.682C242.475 55.4817 240.054 55.3816 237.172 55.3816C234.29 55.3816 231.959 55.4317 230.178 55.5318C228.417 55.6319 227.056 55.8622 226.095 56.2226C225.135 56.583 224.484 57.1137 224.144 57.8145C223.824 58.5153 223.664 59.4664 223.664 60.6678C223.664 61.8693 223.834 62.8504 224.174 63.6113C224.534 64.3522 225.255 64.9329 226.335 65.3534C227.416 65.7739 228.967 66.0642 230.988 66.2244C233.03 66.3645 235.731 66.4346 239.093 66.4346Z" stroke="#202823" stroke-width="5" mask="url(#path-1-outside-1_182_26)"/>
<path fill-rule="evenodd" clip-rule="evenodd" d="M320.292 70.9399C316.449 70.9399 313.187 70.6796 310.506 70.159C307.824 69.6184 305.643 68.6973 303.962 67.3958C302.281 66.0942 301.06 64.3522 300.299 62.1696C299.539 59.987 299.159 57.2438 299.159 53.9399C299.159 50.1555 299.539 47.0318 300.299 44.5689C301.06 42.086 302.281 40.1137 303.962 38.6519C305.643 37.1902 307.824 36.169 310.506 35.5883C313.187 35.0077 316.449 34.7173 320.292 34.7173C323.034 34.7173 325.405 34.9175 327.406 35.318C329.428 35.7185 331.149 36.2992 332.57 37.0601C334.01 37.821 335.171 38.7421 336.052 39.8233C336.952 40.9046 337.653 42.0459 338.153 43.2473C338.673 44.4287 339.024 45.8204 339.204 47.4223C339.404 49.0241 339.504 50.7161 339.504 52.4982L339.024 54.4205H304.922C304.922 57.0636 305.182 59.2362 305.703 60.9382C306.223 62.6201 307.084 63.8516 308.284 64.6325C309.485 65.4134 311.066 65.914 313.027 66.1343C314.989 66.3345 317.41 66.4346 320.292 66.4346C322.934 66.4346 325.115 66.3645 326.836 66.2244C328.577 66.0642 329.958 65.7739 330.979 65.3534C331.999 64.9329 332.71 64.3522 333.11 63.6113C333.53 62.8504 333.74 61.8693 333.74 60.6678H339.504C339.504 62.53 339.174 64.1219 338.513 65.4435C337.873 66.745 336.802 67.8062 335.301 68.6272C333.8 69.4281 331.819 70.0088 329.358 70.3693C326.916 70.7497 323.894 70.9399 320.292 70.9399ZM320.292 39.523C318.371 39.523 316.65 39.563 315.129 39.6431C313.628 39.7232 312.307 39.9034 311.166 40.1837C310.045 40.4441 309.085 40.8345 308.284 41.3551C307.484 41.8557 306.833 42.4564 306.333 43.1572C305.853 43.838 305.493 44.8092 305.252 46.0707C305.032 47.3121 304.922 48.8139 304.922 50.576H333.74C333.74 48.2332 333.49 46.4011 332.99 45.0795C332.49 43.7379 331.699 42.6366 330.618 41.7756C329.538 40.9146 328.147 40.3239 326.446 40.0035C324.745 39.6832 322.693 39.523 320.292 39.523Z" stroke="#202823" stroke-width="5" mask="url(#path-1-outside-1_182_26)"/>
<path d="M377.867 43.3675C378.087 44.3086 378.197 45.5 378.197 46.9417H383C383 44.9594 382.81 43.2073 382.43 41.6855C382.069 40.1637 381.359 38.8922 380.298 37.871C379.258 36.8298 377.797 36.0489 375.916 35.5283C374.034 34.9876 371.593 34.7173 368.591 34.7173C365.969 34.7173 363.778 34.9376 362.017 35.3781C360.276 35.8186 358.855 36.3693 357.754 37.03C356.653 37.6708 355.833 38.3716 355.293 39.1325C354.752 39.8734 354.382 40.5542 354.182 41.1749V35.6784H348.418V70.2792H354.182V48.864C354.182 47.4623 354.342 46.1908 354.662 45.0495C355.002 43.9081 355.633 42.927 356.553 42.106C357.474 41.285 358.745 40.6543 360.366 40.2138C361.987 39.7532 364.088 39.523 366.67 39.523C369.311 39.523 371.393 39.6431 372.914 39.8834C374.455 40.1037 375.615 40.5041 376.396 41.0848C377.176 41.6455 377.667 42.4064 377.867 43.3675Z" stroke="#202823" stroke-width="5" mask="url(#path-1-outside-1_182_26)"/>
</svg>
